<svg width="19" height="19" viewBox="0 0 19 19" fill="none" xmlns="http://www.w3.org/2000/svg">
<path d="M8.71429 17.9999C12.9748 17.9999 16.4286 14.5461 16.4286 10.2856C16.4286 6.02509 12.9748 2.57129 8.71429 2.57129C4.4538 2.57129 1 6.02509 1 10.2856C1 14.5461 4.4538 17.9999 8.71429 17.9999Z" stroke="white" stroke-linecap="round" stroke-linejoin="round"/>
<path d="M12.2528 12.8545C12.111 13.038 10.86 14.5808 8.71671 14.5725C6.65679 14.5558 5.44752 13.113 5.28906 12.9129" stroke="white" stroke-linecap="round" stroke-linejoin="round"/>
<path d="M5.71194 7.56689C5.12816 7.56689 4.66113 8.04227 4.66113 8.61771C4.66113 9.19316 5.13649 9.66853 5.71194 9.66853C6.29572 9.66853 6.76276 9.19316 6.76276 8.61771C6.76276 8.04227 6.29572 7.56689 5.71194 7.56689Z" fill="white"/>
<path d="M11.709 7.56689C11.1252 7.56689 10.6582 8.04227 10.6582 8.61771C10.6582 9.19316 11.1336 9.66853 11.709 9.66853C12.2928 9.66853 12.7598 9.19316 12.7598 8.61771C12.7598 8.04227 12.2845 7.56689 11.709 7.56689Z" fill="white"/>
<rect x="13.8574" width="1.28571" height="9" rx="0.642857" fill="white"/>
<rect x="13.8574" width="1.28571" height="9" rx="0.642857" fill="white"/>
<rect x="10" y="5.14258" width="1.28571" height="9" rx="0.642857" transform="rotate(-90 10 5.14258)" fill="white"/>
<rect x="10" y="5.14258" width="1.28571" height="9" rx="0.642857" transform="rotate(-90 10 5.14258)" fill="white"/>
</svg>
